# xmcd
# 
# Track frame offsets:
#     150
#     26692
#     50775
#     76802
#     102940
#     125727
#     147190
#     168870
#     197117
# 
# Disc length: 2932
# 
# Revision: 8
# Processed by: cddbd v1.5.2PL0 Copyright (c) Steve Scherf et al.
# Submitted via: fre:ac v1.0.31
# 
DISCID=790b7209
DTITLE=中島 みゆき - Kaiki Netu
DYEAR=1989
DGENRE=J-POP
TTITLE0=01-黄砂に吹かれて
TTITLE1=02-肩幅の未来
TTITLE2=03-あり、か
TTITLE3=04-群集
TTITLE4=05-ロンリー カナリア
TTITLE5=06-くらやみ乙女
TTITLE6=07-儀式（セレモニー）
TTITLE7=08-未完成
TTITLE8=09-春なのに
EXTD=YEAR: 1989\nアルバム名：回帰熱\n
EXTT0=
EXTT1=
EXTT2=
EXTT3=
EXTT4=
EXTT5=
EXTT6=
EXTT7=
EXTT8=
PLAYORDER=
